<mxfile host="app.diagrams.net" modified="2022-08-21T12:03:18.581Z" agent="5.0 (Windows)" etag="i8m_Tbycxl2w-iHM2tBw" version="20.2.4" type="github">
  <diagram id="lp5RpTFMIn-cAuqBg4yF" name="Page-1">
    <mxGraphModel dx="1447" dy="708" grid="1" gridSize="10" guides="1" tooltips="1" connect="1" arrows="1" fold="1" page="1" pageScale="1" pageWidth="1169" pageHeight="827" math="0" shadow="0">
      <root>
        <mxCell id="0" />
        <mxCell id="1" parent="0" />
        <mxCell id="3tD0060QXJejx5Fk8neL-1" value="" style="swimlane;startSize=0;" vertex="1" parent="1">
          <mxGeometry x="110" y="40" width="740" height="400" as="geometry" />
        </mxCell>
        <mxCell id="3tD0060QXJejx5Fk8neL-2" value="" style="outlineConnect=0;dashed=0;verticalLabelPosition=bottom;verticalAlign=top;align=center;html=1;shape=mxgraph.aws3.elastic_beanstalk;fillColor=#F58534;gradientColor=none;" vertex="1" parent="3tD0060QXJejx5Fk8neL-1">
          <mxGeometry x="280" y="120" width="67.5" height="93" as="geometry" />
        </mxCell>
        <mxCell id="3tD0060QXJejx5Fk8neL-3" value="" style="sketch=0;points=[[0,0,0],[0.25,0,0],[0.5,0,0],[0.75,0,0],[1,0,0],[0,1,0],[0.25,1,0],[0.5,1,0],[0.75,1,0],[1,1,0],[0,0.25,0],[0,0.5,0],[0,0.75,0],[1,0.25,0],[1,0.5,0],[1,0.75,0]];outlineConnect=0;fontColor=#232F3E;gradientColor=#4D72F3;gradientDirection=north;fillColor=#3334B9;strokeColor=#ffffff;dashed=0;verticalLabelPosition=bottom;verticalAlign=top;align=center;html=1;fontSize=12;fontStyle=0;aspect=fixed;shape=mxgraph.aws4.resourceIcon;resIcon=mxgraph.aws4.rds;" vertex="1" parent="3tD0060QXJejx5Fk8neL-1">
          <mxGeometry x="60" y="127.5" width="78" height="78" as="geometry" />
        </mxCell>
        <mxCell id="3tD0060QXJejx5Fk8neL-4" value="" style="outlineConnect=0;dashed=0;verticalLabelPosition=bottom;verticalAlign=top;align=center;html=1;shape=mxgraph.aws3.s3;fillColor=#E05243;gradientColor=none;" vertex="1" parent="3tD0060QXJejx5Fk8neL-1">
          <mxGeometry x="520" y="120" width="76.5" height="93" as="geometry" />
        </mxCell>
        <mxCell id="3tD0060QXJejx5Fk8neL-7" value="" style="edgeStyle=orthogonalEdgeStyle;html=1;endArrow=block;elbow=vertical;startArrow=none;endFill=1;strokeColor=#545B64;rounded=0;" edge="1" parent="3tD0060QXJejx5Fk8neL-1">
          <mxGeometry width="100" relative="1" as="geometry">
            <mxPoint x="160" y="210" as="sourcePoint" />
            <mxPoint x="260" y="210" as="targetPoint" />
          </mxGeometry>
        </mxCell>
        <mxCell id="3tD0060QXJejx5Fk8neL-8" value="" style="edgeStyle=orthogonalEdgeStyle;html=1;endArrow=none;elbow=vertical;startArrow=block;startFill=1;strokeColor=#545B64;rounded=0;" edge="1" parent="3tD0060QXJejx5Fk8neL-1">
          <mxGeometry width="100" relative="1" as="geometry">
            <mxPoint x="160" y="130" as="sourcePoint" />
            <mxPoint x="260" y="130" as="targetPoint" />
          </mxGeometry>
        </mxCell>
        <mxCell id="3tD0060QXJejx5Fk8neL-10" value="" style="edgeStyle=orthogonalEdgeStyle;html=1;endArrow=block;elbow=vertical;startArrow=none;endFill=1;strokeColor=#545B64;rounded=0;" edge="1" parent="3tD0060QXJejx5Fk8neL-1">
          <mxGeometry width="100" relative="1" as="geometry">
            <mxPoint x="390" y="210" as="sourcePoint" />
            <mxPoint x="490" y="210" as="targetPoint" />
          </mxGeometry>
        </mxCell>
        <mxCell id="3tD0060QXJejx5Fk8neL-11" value="" style="edgeStyle=orthogonalEdgeStyle;html=1;endArrow=none;elbow=vertical;startArrow=block;startFill=1;strokeColor=#545B64;rounded=0;" edge="1" parent="3tD0060QXJejx5Fk8neL-1">
          <mxGeometry width="100" relative="1" as="geometry">
            <mxPoint x="390" y="130" as="sourcePoint" />
            <mxPoint x="490" y="130" as="targetPoint" />
          </mxGeometry>
        </mxCell>
        <mxCell id="3tD0060QXJejx5Fk8neL-18" value="&lt;font style=&quot;font-size: 18px;&quot;&gt;request &lt;/font&gt;" style="text;html=1;strokeColor=none;fillColor=none;align=center;verticalAlign=middle;whiteSpace=wrap;rounded=0;fontSize=19;" vertex="1" parent="3tD0060QXJejx5Fk8neL-1">
          <mxGeometry x="630" y="97.5" width="60" height="30" as="geometry" />
        </mxCell>
        <mxCell id="3tD0060QXJejx5Fk8neL-19" value="show data to the user" style="text;html=1;strokeColor=none;fillColor=none;align=center;verticalAlign=middle;whiteSpace=wrap;rounded=0;fontSize=18;" vertex="1" parent="3tD0060QXJejx5Fk8neL-1">
          <mxGeometry x="610" y="220" width="110" height="30" as="geometry" />
        </mxCell>
        <mxCell id="3tD0060QXJejx5Fk8neL-24" value="" style="edgeStyle=orthogonalEdgeStyle;rounded=0;orthogonalLoop=1;jettySize=auto;html=1;fontSize=18;" edge="1" parent="3tD0060QXJejx5Fk8neL-1" source="3tD0060QXJejx5Fk8neL-21" target="3tD0060QXJejx5Fk8neL-4">
          <mxGeometry relative="1" as="geometry" />
        </mxCell>
        <mxCell id="3tD0060QXJejx5Fk8neL-21" value="front end hosted on S3 bucket" style="text;html=1;strokeColor=none;fillColor=none;align=center;verticalAlign=middle;whiteSpace=wrap;rounded=0;fontSize=18;" vertex="1" parent="3tD0060QXJejx5Fk8neL-1">
          <mxGeometry x="512.25" y="310" width="92" height="30" as="geometry" />
        </mxCell>
        <mxCell id="3tD0060QXJejx5Fk8neL-23" value="" style="edgeStyle=orthogonalEdgeStyle;rounded=0;orthogonalLoop=1;jettySize=auto;html=1;fontSize=18;" edge="1" parent="3tD0060QXJejx5Fk8neL-1" source="3tD0060QXJejx5Fk8neL-22" target="3tD0060QXJejx5Fk8neL-2">
          <mxGeometry relative="1" as="geometry" />
        </mxCell>
        <mxCell id="3tD0060QXJejx5Fk8neL-22" value="backend api hosted on elastic beanstalk" style="text;html=1;strokeColor=none;fillColor=none;align=center;verticalAlign=middle;whiteSpace=wrap;rounded=0;fontSize=18;" vertex="1" parent="3tD0060QXJejx5Fk8neL-1">
          <mxGeometry x="250" y="310" width="140" height="30" as="geometry" />
        </mxCell>
        <mxCell id="3tD0060QXJejx5Fk8neL-31" style="edgeStyle=orthogonalEdgeStyle;rounded=0;orthogonalLoop=1;jettySize=auto;html=1;entryX=0.5;entryY=1;entryDx=0;entryDy=0;entryPerimeter=0;fontSize=18;" edge="1" parent="3tD0060QXJejx5Fk8neL-1" source="3tD0060QXJejx5Fk8neL-30" target="3tD0060QXJejx5Fk8neL-3">
          <mxGeometry relative="1" as="geometry" />
        </mxCell>
        <mxCell id="3tD0060QXJejx5Fk8neL-30" value="database on RDS" style="text;html=1;strokeColor=none;fillColor=none;align=center;verticalAlign=middle;whiteSpace=wrap;rounded=0;fontSize=18;" vertex="1" parent="3tD0060QXJejx5Fk8neL-1">
          <mxGeometry x="60" y="310" width="80" height="30" as="geometry" />
        </mxCell>
        <mxCell id="3tD0060QXJejx5Fk8neL-34" value="FETCH DATA FROM API" style="text;html=1;align=center;verticalAlign=middle;resizable=0;points=[];autosize=1;strokeColor=none;fillColor=none;fontSize=12;" vertex="1" parent="3tD0060QXJejx5Fk8neL-1">
          <mxGeometry x="370" y="90" width="150" height="30" as="geometry" />
        </mxCell>
        <mxCell id="3tD0060QXJejx5Fk8neL-35" value="MAKE QUERIES ON DATABASE" style="text;html=1;strokeColor=none;fillColor=none;align=center;verticalAlign=middle;whiteSpace=wrap;rounded=0;fontSize=12;" vertex="1" parent="3tD0060QXJejx5Fk8neL-1">
          <mxGeometry x="150" y="90" width="110" height="30" as="geometry" />
        </mxCell>
        <mxCell id="3tD0060QXJejx5Fk8neL-36" value="SEND DATA TO SERVER" style="text;html=1;strokeColor=none;fillColor=none;align=center;verticalAlign=middle;whiteSpace=wrap;rounded=0;fontSize=12;" vertex="1" parent="3tD0060QXJejx5Fk8neL-1">
          <mxGeometry x="180" y="225" width="60" height="30" as="geometry" />
        </mxCell>
        <mxCell id="3tD0060QXJejx5Fk8neL-28" style="edgeStyle=orthogonalEdgeStyle;rounded=0;orthogonalLoop=1;jettySize=auto;html=1;exitX=0.35;exitY=0;exitDx=0;exitDy=0;exitPerimeter=0;entryX=0.5;entryY=0;entryDx=0;entryDy=0;entryPerimeter=0;fontSize=18;" edge="1" parent="1" source="3tD0060QXJejx5Fk8neL-16" target="3tD0060QXJejx5Fk8neL-4">
          <mxGeometry relative="1" as="geometry" />
        </mxCell>
        <mxCell id="3tD0060QXJejx5Fk8neL-16" value="" style="points=[[0.35,0,0],[0.98,0.51,0],[1,0.71,0],[0.67,1,0],[0,0.795,0],[0,0.65,0]];verticalLabelPosition=bottom;sketch=0;html=1;verticalAlign=top;aspect=fixed;align=center;pointerEvents=1;shape=mxgraph.cisco19.user;fillColor=#005073;strokeColor=none;" vertex="1" parent="1">
          <mxGeometry x="970" y="160" width="80" height="80" as="geometry" />
        </mxCell>
        <mxCell id="3tD0060QXJejx5Fk8neL-17" value="user" style="text;html=1;strokeColor=none;fillColor=none;align=center;verticalAlign=middle;whiteSpace=wrap;rounded=0;strokeWidth=2;fontStyle=1;fontSize=19;" vertex="1" parent="1">
          <mxGeometry x="880" y="250" width="60" height="30" as="geometry" />
        </mxCell>
        <mxCell id="3tD0060QXJejx5Fk8neL-27" style="edgeStyle=orthogonalEdgeStyle;rounded=0;orthogonalLoop=1;jettySize=auto;html=1;exitX=1;exitY=0.79;exitDx=0;exitDy=0;exitPerimeter=0;entryX=0;entryY=0.795;entryDx=0;entryDy=0;entryPerimeter=0;fontSize=18;" edge="1" parent="1" source="3tD0060QXJejx5Fk8neL-4" target="3tD0060QXJejx5Fk8neL-16">
          <mxGeometry relative="1" as="geometry" />
        </mxCell>
        <mxCell id="3tD0060QXJejx5Fk8neL-32" value="RESPOND WITH DATA" style="shape=note;whiteSpace=wrap;html=1;backgroundOutline=1;fontColor=#000000;darkOpacity=0.05;fillColor=#FFF9B2;strokeColor=none;fillStyle=solid;direction=west;gradientDirection=north;gradientColor=#FFF2A1;shadow=1;size=20;pointerEvents=1;fontSize=17;" vertex="1" parent="1">
          <mxGeometry x="480" y="280" width="120" as="geometry" />
        </mxCell>
      </root>
    </mxGraphModel>
  </diagram>
</mxfile>
